<svg xmlns="http://www.w3.org/2000/svg" version="1.1" xmlns:xlink="http://www.w3.org/1999/xlink" xmlns:svgjs="http://svgjs.dev/svgjs" width="2000" height="297" viewBox="0 0 2000 297"><g transform="matrix(1,0,0,1,-1.2121212121212466,0.607815447720327)"><svg viewBox="0 0 396 59" data-background-color="#8abcd7" preserveAspectRatio="xMidYMid meet" height="297" width="2000" xmlns="http://www.w3.org/2000/svg" xmlns:xlink="http://www.w3.org/1999/xlink"><g id="tight-bounds" transform="matrix(1,0,0,1,0.2400000000000091,-0.12074448288046824)"><svg viewBox="0 0 395.52 59.241488965760965" height="59.241488965760965" width="395.52"><g><svg viewBox="0 0 506.53626775699814 75.86964683728749" height="59.241488965760965" width="395.52"><g transform="matrix(1,0,0,1,111.0162677569982,10.485602421072297)"><svg viewBox="0 0 395.5199999999999 54.898441995142896" height="54.898441995142896" width="395.5199999999999"><g id="textblocktransform"><svg viewBox="0 0 395.5199999999999 54.898441995142896" height="54.898441995142896" width="395.5199999999999" id="textblock"><g><svg viewBox="0 0 395.5199999999999 54.898441995142896" height="54.898441995142896" width="395.5199999999999"><g transform="matrix(1,0,0,1,0,0)"><svg width="395.5199999999999" viewBox="4.300000190734863 -32.5 267.6300048828125 37.150001525878906" height="54.898441995142896" data-palette-color="#ffffff"><path d="M19.3-16.7Q22.65-16 24.28-14.08 25.9-12.15 25.9-9L25.9-9Q25.9 0.2 12.15 0.2L12.15 0.2Q7.4 0.2 4.35 0L4.35 0 4.3 0 4.65-9.65 4.3-32.1 14.3-32.15Q18.95-32.15 21.53-30.13 24.1-28.1 24.1-24.25L24.1-24.25Q24.1-21.55 22.85-19.63 21.6-17.7 19.3-16.7L19.3-16.7ZM18.8-23.65Q18.8-26.05 17.45-27.1 16.1-28.15 12.9-28.15L12.9-28.15 9.5-28.15 9.35-18.3 14.5-18.15Q16.7-18.7 17.75-20.03 18.8-21.35 18.8-23.65L18.8-23.65ZM13-3.8Q16.7-3.8 18.7-5.2 20.7-6.6 20.7-9.3L20.7-9.3Q20.7-13.6 15.15-14.35L15.15-14.35 9.3-14.3 9.25-10.1 9.4-3.95Q11.35-3.8 13-3.8L13-3.8ZM37.3-32.1L37-10.1 37.25 0 32 0 32.35-9.65 32-32.1 37.3-32.1ZM58.75-32.45Q63.8-32.45 68.15-30.3L68.15-30.3 67.09-25.5 66.55-25.45Q64.09-26.9 62.09-27.53 60.09-28.15 57.89-28.15L57.89-28.15Q52.9-28.15 50.45-25.13 48-22.1 48-15.6L48-15.6Q48-9.4 50.3-6.63 52.59-3.85 57.59-3.85L57.59-3.85Q58.84-3.85 60.07-4.08 61.3-4.3 63.15-4.85L63.15-4.85 63.3-8.1 63.15-13.05 68-13.4 67.9-8.9 68.05-1.55Q61.84 0.4 57.3 0.4L57.3 0.4Q49.95 0.4 46.3-3.68 42.65-7.75 42.65-15.35L42.65-15.35Q42.65-23.65 46.82-28.05 51-32.45 58.75-32.45L58.75-32.45ZM89.89-12.85Q93.29-7.4 97.94-1.2L97.94-1.2 97.89-0.6Q95.49 0.2 92.94 0.45L92.94 0.45 92.34 0.05Q88.19-6.75 85.64-11.45L85.64-11.45 80.19-11.45 80.19-10.1 80.44 0 75.19 0 75.54-9.65 75.19-32.1 86.09-32.15Q90.94-32.15 93.59-29.73 96.24-27.3 96.24-22.8L96.24-22.8Q96.24-19.6 94.57-17.03 92.89-14.45 89.89-12.85L89.89-12.85ZM80.44-27.95L80.29-15.65 85.79-15.5Q90.84-17.05 90.84-22.4L90.84-22.4Q90.84-25.2 89.32-26.6 87.79-28 84.69-28.1L84.69-28.1 80.44-27.95ZM115.29-32.5Q121.94-32.5 125.54-28.4 129.14-24.3 129.14-16.7L129.14-16.7Q129.14-8.5 125.29-4.03 121.44 0.45 114.34 0.45L114.34 0.45Q107.74 0.45 104.17-3.78 100.59-8 100.59-15.75L100.59-15.75Q100.59-23.8 104.42-28.15 108.24-32.5 115.29-32.5L115.29-32.5ZM114.89-28.3Q110.34-28.3 108.12-25.38 105.89-22.45 105.89-16.35L105.89-16.35Q105.89-9.7 108.07-6.63 110.24-3.55 114.79-3.55L114.79-3.55Q119.39-3.55 121.59-6.5 123.79-9.45 123.79-15.7L123.79-15.7Q123.79-22.25 121.62-25.28 119.44-28.3 114.89-28.3L114.89-28.3ZM147.19-32.45Q152.09-32.45 155.84-30.25L155.84-30.25 154.89-25.7 154.39-25.55Q151.04-28.15 146.99-28.15L146.99-28.15Q142.59-28.15 140.26-25.18 137.94-22.2 137.94-16.3L137.94-16.3Q137.94-10.25 140.29-7.1 142.64-3.95 146.99-3.95L146.99-3.95Q149.09-3.95 151.16-4.67 153.24-5.4 154.99-6.7L154.99-6.7 155.49-6.4 155.09-1.7Q150.79 0.4 146.59 0.4L146.59 0.4Q139.84 0.4 136.19-3.8 132.54-8 132.54-15.75L132.54-15.75Q132.54-23.75 136.36-28.1 140.19-32.45 147.19-32.45L147.19-32.45ZM166.34-32.1L166.09-10.1 166.29 0 161.14 0 161.39-9.65 161.14-32.1 166.34-32.1ZM184.19-32.1L171.84-17Q177.64-9.2 185.09-1.1L185.09-1.1 185.04-0.5Q182.84 0.1 180.09 0.45L180.09 0.45 179.44 0.15Q171.84-9.15 166.54-16.75L166.54-16.75 166.54-17.1 176.54-29.2 178.54-32.1 184.19-32.1ZM198.63-32.45Q202.43-32.45 206.23-30.85L206.23-30.85 205.38-26.15 204.58-25.85Q202.98-27 201.28-27.65 199.58-28.3 198.03-28.3L198.03-28.3Q195.58-28.3 194.13-26.95 192.68-25.6 192.68-23.8L192.68-23.8Q192.68-22.05 194.13-20.93 195.58-19.8 198.68-18.35L198.68-18.35Q201.38-17.05 203.06-16 204.73-14.95 205.93-13.23 207.13-11.5 207.13-9.1L207.13-9.1Q207.13-6.5 205.71-4.33 204.28-2.15 201.71-0.88 199.13 0.4 195.83 0.4L195.83 0.4Q193.63 0.4 191.28-0.15 188.93-0.7 186.83-1.75L186.83-1.75 187.48-6.85 188.13-7.15Q189.98-5.4 192.21-4.53 194.43-3.65 196.33-3.65L196.33-3.65Q198.93-3.65 200.48-5.03 202.03-6.4 202.03-8.3L202.03-8.3Q202.03-10.2 200.53-11.38 199.03-12.55 195.93-14L195.93-14Q193.28-15.25 191.63-16.28 189.98-17.3 188.81-19 187.63-20.7 187.63-23.1L187.63-23.1Q187.63-25.7 189.03-27.85 190.43-30 192.93-31.23 195.43-32.45 198.63-32.45L198.63-32.45ZM219.13-7.4Q215.33-7.4 213.18-9.78 211.03-12.15 211.03-15.95L211.03-15.95Q211.03-18.65 212.23-20.83 213.43-23 215.71-24.28 217.98-25.55 221.13-25.55L221.13-25.55Q225.88-25.55 228.33-22.65 230.78-19.75 230.78-14.5L230.78-14.5Q230.78-8.2 226.96-3.23 223.13 1.75 216.13 4.65L216.13 4.65 215.83 4.65 212.03 2.35 212.03 1.85Q217.78-0.2 220.98-2.75 224.18-5.3 225.38-8.85L225.38-8.85 225.03-9.25Q222.28-7.4 219.13-7.4L219.13-7.4ZM220.78-22.1Q218.33-22.1 216.96-20.7 215.58-19.3 215.58-16.65L215.58-16.65Q215.58-13.95 216.88-12.5 218.18-11.05 220.58-11.05L220.58-11.05Q223.33-11.05 226.13-13.2L226.13-13.2Q226.18-13.6 226.18-14.4L226.18-14.4Q226.18-18.3 224.91-20.2 223.63-22.1 220.78-22.1L220.78-22.1ZM244.08-25.3L244.83-24.75 244.53-10.35 244.78 0 239.63 0 239.93-9.8 239.88-19.5 233.78-17.8 233.33-18.1 233.33-22.15 244.08-25.3ZM262.88-29.65Q266.68-29.65 268.85-27.75 271.03-25.85 271.03-22.55L271.03-22.55Q271.03-20.15 269.8-18.5 268.58-16.85 266.43-15.5L266.43-15.5 266.43-15.25Q268.98-14 270.45-12.43 271.93-10.85 271.93-8.05L271.93-8.05Q271.93-4.15 269.15-1.88 266.38 0.4 261.78 0.4L261.78 0.4Q257.48 0.4 255.05-1.68 252.63-3.75 252.63-7.15L252.63-7.15Q252.63-9.85 254.18-11.6 255.73-13.35 258.28-14.6L258.28-14.6 258.28-14.85Q256.23-15.9 254.98-17.55 253.73-19.2 253.73-21.75L253.73-21.75Q253.73-25.4 256.25-27.53 258.78-29.65 262.88-29.65L262.88-29.65ZM262.63-26.05Q260.43-26.05 259.18-24.93 257.93-23.8 257.93-21.9L257.93-21.9Q257.93-19.95 259.18-18.85 260.43-17.75 262.78-16.85L262.78-16.85Q264.78-17.8 265.9-18.98 267.03-20.15 267.03-22.05L267.03-22.05Q267.03-23.9 265.85-24.98 264.68-26.05 262.63-26.05L262.63-26.05ZM261.88-13.1Q259.53-12.25 258.23-11.05 256.93-9.85 256.93-7.75L256.93-7.75Q256.93-5.65 258.35-4.4 259.78-3.15 262.23-3.15L262.23-3.15Q264.78-3.15 266.23-4.42 267.68-5.7 267.68-7.7L267.68-7.7Q267.68-9.15 266.9-10.13 266.13-11.1 265-11.7 263.88-12.3 261.88-13.1L261.88-13.1Z" opacity="1" transform="matrix(1,0,0,1,0,0)" fill="#000000" class="wordmark-text-0" data-fill-palette-color="primary" id="text-0"></path></svg></g></svg></g></svg></g></svg></g><g><svg viewBox="0 0 98.05606316455285 75.86964683728749" height="75.86964683728749" width="98.05606316455285"><g><svg xmlns="http://www.w3.org/2000/svg" xmlns:xlink="http://www.w3.org/1999/xlink" version="1.1" x="0" y="0" viewBox="0.5 11.699999809265137 99 76.60000610351562" style="enable-background:new 0 0 100 100;" xml:space="preserve" height="75.86964683728749" width="98.05606316455285" class="icon-icon-0" data-fill-palette-color="accent" id="icon-0"><g fill="#ffffff" data-fill-palette-color="accent"><polygon points="77,11.7 31.6,11.7 0.5,50.4 0.5,74.9 23,80.2 70.2,47.5  " fill="#000000" data-fill-palette-color="accent"></polygon><polygon points="34.5,82.8 55.6,88.3 84.3,69.5 73.9,55.9  " fill="#000000" data-fill-palette-color="accent"></polygon><polygon points="87.2,11.7 79.4,50.1 89.6,65 99.5,58.5  " fill="#000000" data-fill-palette-color="accent"></polygon></g></svg></g></svg></g></svg></g><defs></defs></svg><rect width="395.52" height="59.241488965760965" fill="none" stroke="none" visibility="hidden"></rect></g></svg></g></svg>