<svg xmlns="http://www.w3.org/2000/svg" version="1.1" xmlns:xlink="http://www.w3.org/1999/xlink" xmlns:svgjs="http://svgjs.dev/svgjs" width="128" height="128" viewBox="0 0 128 128"><g transform="matrix(0.8046875,0,0,0.8046875,12.760752631578946,24.101878895692572)"><svg viewBox="0 0 95 74" data-background-color="#8abcd7" preserveAspectRatio="xMidYMid meet" height="99" width="128" xmlns="http://www.w3.org/2000/svg" xmlns:xlink="http://www.w3.org/1999/xlink"><g id="tight-bounds" transform="matrix(1,0,0,1,-0.24049999999999727,0.06139090909090328)"><svg viewBox="0 0 95.481 73.87721818181818" height="73.87721818181818" width="95.481"><g><svg viewBox="0 0 95.481 73.87721818181818" height="73.87721818181818" width="95.481"><g><svg viewBox="0 0 95.481 73.87721818181818" height="73.87721818181818" width="95.481"><g id="textblocktransform"><svg viewBox="0 0 95.481 73.87721818181818" height="73.87721818181818" width="95.481" id="textblock"><g><svg viewBox="0 0 95.481 73.87721818181818" height="73.87721818181818" width="95.481"><g><svg viewBox="0 0 95.481 73.87721818181818" height="73.87721818181818" width="95.481"><g><svg xmlns="http://www.w3.org/2000/svg" xmlns:xlink="http://www.w3.org/1999/xlink" version="1.1" x="0" y="0" viewBox="0.5 11.7 99 76.6" style="enable-background:new 0 0 100 100;" xml:space="preserve" height="73.87721818181818" width="95.481" class="icon-icon-0" data-fill-palette-color="accent" id="icon-0"><g fill="#ffffff" data-fill-palette-color="accent"><polygon points="77,11.7 31.6,11.7 0.5,50.4 0.5,74.9 23,80.2 70.2,47.5  " fill="#000000" data-fill-palette-color="accent"></polygon><polygon points="34.5,82.8 55.6,88.3 84.3,69.5 73.9,55.9  " fill="#000000" data-fill-palette-color="accent"></polygon><polygon points="87.2,11.7 79.4,50.1 89.6,65 99.5,58.5  " fill="#000000" data-fill-palette-color="accent"></polygon></g></svg></g></svg></g></svg></g></svg></g></svg></g></svg></g><defs></defs></svg><rect width="95.481" height="73.87721818181818" fill="none" stroke="none" visibility="hidden"></rect></g></svg></g></svg>